<?xml version="1.0" encoding="UTF-8"?>
<!DOCTYPE svg PUBLIC "-//W3C//DTD SVG 1.1//EN" "http://www.w3.org/Graphics/SVG/1.1/DTD/svg11.dtd">
<!-- Creator: CorelDRAW X7 -->
<svg xmlns="http://www.w3.org/2000/svg" xml:space="preserve" width="210mm" height="297mm" version="1.1" style="shape-rendering:geometricPrecision; text-rendering:geometricPrecision; image-rendering:optimizeQuality; fill-rule:evenodd; clip-rule:evenodd"
viewBox="0 0 21000 29700"
 xmlns:xlink="http://www.w3.org/1999/xlink">
 <defs>
  <style type="text/css">
   <![CDATA[
    .fil0 {fill:#085543}
    .fil2 {fill:#6D967E}
    .fil1 {fill:#E4EAE5}
   ]]>
  </style>
 </defs>
 <g id="Layer_x0020_1">
  <metadata id="CorelCorpID_0Corel-Layer"/>
  <g id="_792233635744">
   <path class="fil0" d="M6351 14111c-25,234 -81,478 -191,631 -112,156 -381,254 -626,149 -363,-156 -396,-862 -351,-1296 22,-209 79,-472 183,-622 262,-380 1134,-254 985,1138zm3785 -72c-52,497 -158,1039 -766,872 -415,-113 -449,-788 -417,-1253 30,-450 241,-996 774,-845 393,111 454,794 409,1226zm-1206 -2634c-7,-143 20,-167 -25,-315 -30,-97 -51,-148 -67,-250 -115,-285 -216,-509 -377,-733 -490,-684 -1282,-1124 -2225,-1065 119,593 354,1067 674,1404 369,388 652,562 1358,687 19,861 32,2266 12,3144 -8,400 10,573 -402,642 -296,49 -756,22 -837,-227 -52,-159 -27,-1788 -24,-2080 13,-1140 122,-994 -704,-979 -107,1 -221,-18 -234,79 -18,121 77,115 156,144 193,70 161,256 159,471 -1,193 3,422 -10,611 -178,-148 -243,-316 -562,-381 -265,-53 -582,-20 -785,111 -379,247 -590,708 -545,1323 104,1416 1487,1420 1935,805l87 -105c2,-7 9,-7 13,-11 339,321 478,480 1095,484 499,3 817,-109 1083,-485 155,55 125,265 540,425 237,91 572,95 823,26 479,-130 720,-583 759,-1138 101,-1464 -1160,-1713 -1672,-1297 -91,74 -157,167 -249,234 -2,-234 38,-1129 -36,-1280 -448,-914 -1688,-1295 -1952,-1882 555,481 802,572 1340,972 56,42 73,65 128,109 48,39 76,49 121,94 128,130 324,348 415,501l8 -38z"/>
   <path class="fil0" d="M15721 13742c119,1379 -666,1276 -868,1059 -174,-189 -146,-646 20,-836 196,-224 547,-267 848,-223zm1991 321c-36,-470 32,-1088 405,-1232 590,-228 740,351 779,828 36,447 -16,1120 -396,1246 -579,192 -753,-372 -788,-842zm-219 606c92,65 133,183 212,253 285,251 727,325 1101,217 452,-131 732,-543 772,-1100 115,-1603 -1212,-1697 -1651,-1350l-255 219c9,-313 38,-968 -6,-1251 -37,-233 -428,-175 -781,-155 -169,10 -165,10 -145,157 260,148 308,-1 311,454 1,245 0,491 0,737 0,494 13,1007 -1,1499 -8,253 -2,489 -222,550 -254,72 -419,1 -439,-255 -89,-1147 306,-2054 -869,-2110 -1415,-67 -1228,958 -710,748 221,-89 29,-343 253,-484 184,-116 467,-31 565,86 124,147 104,425 99,633 -505,51 -718,-61 -1193,156 -552,252 -511,945 -341,1170 160,213 385,309 663,327 639,40 713,-197 953,-396 124,414 444,432 900,384 564,-60 629,-367 784,-489z"/>
   <path class="fil0" d="M11944 12935c-9,-399 13,-810 -15,-1203 -20,-290 -108,-239 -382,-237 -170,2 -411,-30 -551,47 -14,235 173,122 266,261 69,103 45,318 45,452l-7 1999c1,764 -8,590 -276,707 -3,181 5,170 188,171 212,0 896,20 1007,-22l-5 -173c-311,-52 -268,-190 -270,-493 -4,-537 -91,-1581 626,-1639 272,-22 388,90 416,338 25,221 10,1204 8,1492 -1,158 19,220 -103,275 -114,51 -175,28 -147,193 138,41 963,41 1151,18l7 -154c-169,-128 -255,27 -272,-353 -50,-1171 272,-2138 -894,-2088 -426,18 -543,165 -745,369 -37,38 2,8 -47,40z"/>
   <path class="fil0" d="M3566 13921c-5,408 -151,896 -496,968 -920,192 -376,-1282 -575,-2308 -128,-17 -676,-33 -821,-12 -111,16 -99,41 -83,152 168,127 275,-4 294,322 27,470 -58,1459 81,1752 141,296 428,408 828,388 516,-26 647,-350 790,-442 23,231 26,401 278,408 155,4 534,27 651,-39l-2 -151c-405,-67 -307,-201 -317,-1062 -17,-1526 152,-1335 -593,-1336 -212,0 -401,-65 -344,181 112,50 202,30 262,119 81,121 50,896 47,1060z"/>
   <path class="fil1" d="M10136 14039c45,-432 -16,-1115 -409,-1226 -533,-151 -744,395 -774,845 -32,465 2,1140 417,1253 608,167 714,-375 766,-872z"/>
   <path class="fil1" d="M17712 14063c35,470 209,1034 788,842 380,-126 432,-799 396,-1246 -39,-477 -189,-1056 -779,-828 -373,144 -441,762 -405,1232z"/>
   <path class="fil1" d="M6351 14111c149,-1392 -723,-1518 -985,-1138 -104,150 -161,413 -183,622 -45,434 -12,1140 351,1296 245,105 514,7 626,-149 110,-153 166,-397 191,-631z"/>
   <path class="fil2" d="M8838 10840c16,102 37,153 67,250 45,148 18,172 25,315 36,-83 36,-239 59,-348 27,-128 50,-218 90,-340 164,-493 94,-998 296,-1372 104,-192 225,-374 388,-468 -139,251 -130,119 -326,582 -72,170 -170,579 -123,786 127,-108 437,-624 545,-818 87,-155 467,-797 495,-909 -655,-102 -1179,125 -1377,573 -314,712 -78,1580 -139,1749z"/>
   <path class="fil1" d="M15721 13742c-301,-44 -652,-1 -848,223 -166,190 -194,647 -20,836 202,217 987,320 868,-1059z"/>
  </g>
 </g>
</svg>
